<svg width="820" height="220" viewBox="0 0 820 220" xmlns="http://www.w3.org/2000/svg">
  <defs>
    <linearGradient id="fade" x1="0" y1="0" x2="1" y2="0">
      <stop offset="0%" stop-color="#F4F4F6" stop-opacity="1"/>
      <stop offset="62%" stop-color="#F4F4F6" stop-opacity="1"/>
      <stop offset="100%" stop-color="#F4F4F6" stop-opacity="0.18"/>
    </linearGradient>
  </defs>
  <rect x="20" y="20" width="180" height="180" rx="42" fill="#101014"/>
  <!-- ghost body, right edge dissolving -->
  <path d="M 68 168
           L 68 106
           C 68 78 87 58 110 58
           C 133 58 152 78 152 106
           L 152 168
           L 138 156 L 124 168 L 110 156 L 96 168 L 82 156 Z"
        fill="url(#fade)"/>
  <!-- window-pane muntins -->
  <path d="M 110 58 L 110 168 M 68 113 L 152 113" stroke="#101014" stroke-width="5"/>
  <!-- eyes -->
  <circle cx="96" cy="92" r="6.5" fill="#101014"/>
  <circle cx="124" cy="92" r="6.5" fill="#101014"/>
  <!-- dissolve dashes -->
  <g fill="#F4F4F6">
    <rect x="158" y="84"  width="10" height="5" rx="2.5" opacity="0.7"/>
    <rect x="162" y="104" width="12" height="5" rx="2.5" opacity="0.5"/>
    <rect x="157" y="124" width="9"  height="5" rx="2.5" opacity="0.35"/>
    <rect x="163" y="144" width="11" height="5" rx="2.5" opacity="0.22"/>
  </g>
  <text x="248" y="148" font-family="'Helvetica Neue', Helvetica, Arial, sans-serif" font-size="88" font-weight="600" letter-spacing="-2" fill="#101014">ghost<tspan fill="#8a8a94">pane</tspan></text>
</svg>
